<svg xmlns="http://www.w3.org/2000/svg" xmlns:xlink="http://www.w3.org/1999/xlink" viewBox="0 0 531.24 673.59"><defs><style>.cls-1,.cls-11,.cls-2{fill:#662d91;}.cls-1,.cls-11,.cls-12,.cls-13,.cls-2,.cls-3,.cls-6{stroke:#000;stroke-miterlimit:10;}.cls-1{stroke-width:0.5px;}.cls-2,.cls-3{stroke-width:2px;}.cls-12,.cls-3{fill:#29abe2;}.cls-4{font-size:85.79px;}.cls-10,.cls-14,.cls-4,.cls-7,.cls-9{font-family:Cambo-Regular, Cambo;}.cls-5{letter-spacing:-0.01em;}.cls-6{fill:url(#linear-gradient);}.cls-7{font-size:49.04px;}.cls-8,.cls-9{font-size:27.33px;}.cls-15,.cls-8{font-family:OpenSans-Regular, Open Sans;}.cls-10{font-size:51.56px;}.cls-13{fill:none;}.cls-14{font-size:67.32px;}.cls-15{font-size:21px;}</style><linearGradient id="linear-gradient" x1="198.54" y1="480.76" x2="198.54" y2="405.1" gradientUnits="userSpaceOnUse"><stop offset="0" stop-color="#fff" stop-opacity="0.3"/><stop offset="1" stop-color="#fff" stop-opacity="0.1"/></linearGradient></defs><title>Asset 10</title><g id="Layer_2" data-name="Layer 2"><g id="Layer_1-2" data-name="Layer 1"><rect class="cls-1" x="181.89" y="538.64" width="325.59" height="134.56"/><polygon class="cls-2" points="512.88 526.63 181.89 527.83 53.93 468.36 382.97 468.36 512.88 526.63"/><polygon class="cls-1" points="181.89 673.2 53.93 614.93 53.93 480.37 181.89 538.64 181.89 673.2"/><polygon class="cls-2" points="181.89 662.39 53.93 604.12 53.93 469.56 181.89 527.83 181.89 662.39"/><rect class="cls-2" x="181.89" y="527.83" width="331" height="134.56"/><rect class="cls-3" x="152.24" y="384.95" width="325.59" height="134.56"/><polygon class="cls-3" points="483.24 372.94 152.24 374.14 24.29 314.67 353.32 314.67 483.24 372.94"/><polygon class="cls-3" points="152.24 519.51 24.29 461.25 24.29 326.68 152.24 384.95 152.24 519.51"/><polygon class="cls-3" points="152.24 508.7 24.29 450.43 24.29 315.87 152.24 374.14 152.24 508.7"/><rect class="cls-3" x="152.24" y="374.14" width="331" height="134.56"/><rect class="cls-1" x="181.11" y="226.87" width="325.59" height="134.56"/><polygon class="cls-2" points="512.11 214.85 181.11 216.06 53.16 156.59 382.19 156.59 512.11 214.85"/><polygon class="cls-1" points="181.11 361.43 53.16 303.16 53.16 168.6 181.11 226.87 181.11 361.43"/><polygon class="cls-2" points="181.11 350.62 53.16 292.35 53.16 157.79 181.11 216.06 181.11 350.62"/><rect class="cls-2" x="181.11" y="216.06" width="331" height="134.56"/><rect class="cls-3" x="132.48" y="71.28" width="325.59" height="134.56"/><polygon class="cls-3" points="463.47 59.27 132.48 60.47 4.52 1 333.56 1 463.47 59.27"/><polygon class="cls-3" points="132.48 205.84 4.52 147.57 4.52 13.01 132.48 71.28 132.48 205.84"/><polygon class="cls-3" points="132.48 195.03 4.52 136.76 4.52 2.2 132.48 60.47 132.48 195.03"/><rect class="cls-3" x="132.48" y="60.47" width="331" height="134.56"/><text class="cls-4" transform="translate(246.76 467.68) scale(0.32 1)">Boxing <tspan class="cls-5" x="290.14" y="0">F</tspan><tspan x="340.33" y="0">or Beans</tspan></text><circle class="cls-6" cx="198.54" cy="442.93" r="37.83"/><text class="cls-7" transform="translate(218.11 584.41)">Adventure</text><text class="cls-7" transform="translate(216.54 635.11)">Island</text><text class="cls-8" transform="matrix(-0.6, -0.8, 0.8, -0.6, 408.99, 315.35)">L</text><text class="cls-8" transform="translate(400.89 305.33) rotate(-108.69)">o</text><text class="cls-8" transform="translate(396.2 290.83) rotate(-91.94)">r</text><text class="cls-8" transform="translate(395.41 280.85) rotate(-76.06)">e</text><text class="cls-8" transform="matrix(0.62, -0.78, 0.78, 0.62, 397.42, 266.94)">m</text><text class="cls-8" transform="matrix(0.85, -0.53, 0.53, 0.85, 413.25, 249.18)"> </text><text class="cls-8" transform="translate(418.69 245.74) rotate(-23.47)">i</text><text class="cls-8" transform="translate(423.81 242.71) rotate(-9.13)">p</text><text class="cls-8" transform="translate(439.05 240.35) rotate(8.82)">s</text><text class="cls-8" transform="matrix(0.89, 0.45, -0.45, 0.89, 450.76, 241.66)">u</text><text class="cls-8" transform="translate(465.06 247.4) rotate(52.24)">m</text><text class="cls-8" transform="matrix(0.31, 0.95, -0.95, 0.31, 478.61, 267)"> </text><text class="cls-8" transform="translate(481.2 272.53) rotate(86.21)">d</text><text class="cls-8" transform="translate(482.44 287.85) rotate(106.21)">o</text><text class="cls-8" transform="matrix(-0.5, 0.86, -0.86, -0.5, 477.73, 302.46)">l</text><text class="cls-8" transform="translate(475.35 307.95) rotate(134.52)">o</text><text class="cls-8" transform="matrix(-0.88, 0.48, -0.48, -0.88, 464.52, 318.67)">r</text><text class="cls-8" transform="translate(455.48 323.54) rotate(162.11)"> </text><text class="cls-8" transform="translate(449.71 325.84) rotate(174.3)">s</text><text class="cls-8" transform="translate(437.67 326.82) rotate(-173.7)">i</text><text class="cls-8" transform="matrix(-0.96, -0.28, 0.28, -0.96, 431.51, 326.32)">t</text><text class="cls-9" transform="translate(423.04 323.8) rotate(-153.8)"> </text><text class="cls-10" transform="translate(413.28 299.06) scale(0.77 1)">???</text><polygon class="cls-11" points="132.87 622.88 66.63 593.11 66.63 525.83 132.87 555.6 132.87 622.88"/><polygon class="cls-11" points="132.87 551.52 66.63 521.78 66.63 498.09 132.87 527.83 132.87 551.52"/><polygon class="cls-11" points="164.41 638.74 164.18 542.76 136.11 528.99 136.34 624.97 164.41 638.74"/><polygon class="cls-11" points="97.65 198.9 163.89 228.66 163.89 295.94 97.65 266.18 97.65 198.9"/><polygon class="cls-11" points="97.65 270.26 163.89 300 163.89 323.68 97.65 293.94 97.65 270.26"/><polygon class="cls-11" points="66.11 183.03 66.34 279.02 94.41 292.79 94.18 196.8 66.11 183.03"/><text class="cls-7" transform="translate(189.11 270.26)">Mystery<tspan x="0" y="58.85">Mania</tspan></text><polygon class="cls-12" points="105.95 134.22 26.27 97.94 26.27 39.81 105.95 76.1 105.95 134.22"/><polygon class="cls-12" points="105.95 161.15 26.27 124.87 26.27 104.69 105.95 140.97 105.95 161.15"/><line class="cls-13" x1="181.88" y1="543.68" x2="512.89" y2="543.68"/><line class="cls-13" x1="180.88" y1="643.68" x2="511.89" y2="643.68"/><polygon class="cls-12" points="105.61 470.36 39.38 440.59 39.38 346.55 105.61 376.31 105.61 470.36"/><polygon class="cls-12" points="137.16 486.22 136.93 390.23 108.85 376.46 109.08 472.45 137.16 486.22"/><text class="cls-14" transform="translate(139.16 135.92)">Embezzler</text><text class="cls-15" transform="matrix(0.98, -0.21, 0.21, 0.98, 247.82, 170.32)">L</text><text class="cls-15" transform="matrix(0.98, -0.18, 0.18, 0.98, 258.36, 168.09)">i</text><text class="cls-15" transform="translate(263.44 167.09) rotate(-8.09)">e</text><text class="cls-15" transform="translate(274.83 165.36) rotate(-3.51)">&amp;</text><text class="cls-15" transform="translate(289.71 164.45) rotate(3.18)">C</text><text class="cls-15" transform="translate(302.65 165.2) rotate(7.96)">h</text><text class="cls-15" transform="translate(315.22 166.99) rotate(11.14)">e</text><text class="cls-15" transform="matrix(0.97, 0.23, -0.23, 0.97, 326.63, 169.24)">a</text><text class="cls-15" transform="matrix(0.97, 0.26, -0.26, 0.97, 337.88, 171.97)">t</text></g></g></svg>