<svg xmlns="http://www.w3.org/2000/svg" viewBox="0 0 676.51 380.54"><defs><style>.cls-1,.cls-6{fill:#29abe2;}.cls-2,.cls-4{fill:#662d91;}.cls-3{fill:#4f345a;}.cls-4,.cls-6{stroke:#fff;stroke-miterlimit:10;}.cls-4{stroke-width:0.25px;}.cls-5{fill:#3e7cb1;}</style></defs><title>Asset 4</title><g id="Layer_2" data-name="Layer 2"><g id="Layer_1-2" data-name="Layer 1"><rect class="cls-1" width="676.51" height="380.54"/><rect class="cls-2" x="15.39" y="18.67" width="643.5" height="162.08"/><rect class="cls-2" x="15.39" y="196.11" width="643.5" height="168.21"/><rect class="cls-3" x="-5.25" y="118.63" width="109.93" height="7.75" transform="translate(-69.27 180.15) rotate(-93.76)"/><rect class="cls-4" x="-21.17" y="108.35" width="114.16" height="30.12" transform="translate(-84.88 167.35) rotate(-93.76)"/><rect class="cls-5" x="58.29" y="172.3" width="127.3" height="7.75"/><rect class="cls-6" x="55.84" y="147.28" width="132.2" height="30.12"/><rect class="cls-5" x="62.53" y="138.45" width="109.93" height="7.75"/><rect class="cls-6" x="60.42" y="113.44" width="114.16" height="30.12"/><rect class="cls-5" x="372.64" y="336.74" width="109.93" height="7.75"/><rect class="cls-6" x="370.53" y="311.72" width="114.16" height="30.12"/><rect class="cls-3" x="84.78" y="104.61" width="109.93" height="7.75"/><rect class="cls-4" x="82.66" y="79.59" width="114.16" height="30.12"/><rect class="cls-3" x="161.3" y="106.98" width="134.11" height="7.75" transform="translate(117.5 339.21) rotate(-90)"/><rect class="cls-4" x="144.89" y="95.8" width="139.27" height="30.12" transform="translate(103.67 325.39) rotate(-90)"/><rect class="cls-5" x="206.51" y="119.34" width="109.93" height="7.75" transform="translate(138.26 384.69) rotate(-90)"/><rect class="cls-6" x="190.57" y="108.15" width="114.16" height="30.12" transform="translate(124.43 370.86) rotate(-90)"/><rect class="cls-3" x="227.72" y="106.98" width="134.11" height="7.75" transform="translate(183.92 405.63) rotate(-90)"/><rect class="cls-4" x="211.31" y="95.8" width="139.27" height="30.12" transform="translate(170.09 391.8) rotate(-90)"/><rect class="cls-5" x="280.81" y="139.36" width="74.34" height="4.98" transform="translate(176.13 459.83) rotate(-90)"/><rect class="cls-6" x="270.5" y="132.18" width="77.2" height="19.34" transform="translate(167.25 450.95) rotate(-90)"/><rect class="cls-5" x="272.49" y="114.32" width="142.2" height="7.75" transform="matrix(0.57, 0.82, -0.82, 0.57, 245.55, -231.68)"/><rect class="cls-6" x="281.13" y="95.27" width="147.66" height="30.12" transform="translate(244 -244.43) rotate(55.36)"/><rect class="cls-5" x="313.76" y="114.71" width="142.2" height="7.75" transform="translate(263.69 -265.46) rotate(55.36)"/><rect class="cls-6" x="322.4" y="95.67" width="147.66" height="30.12" transform="translate(262.14 -278.22) rotate(55.36)"/><rect class="cls-3" x="380.87" y="127.49" width="109.93" height="7.75" transform="translate(296.18 -301.88) rotate(55.36)"/><rect class="cls-4" x="390.13" y="108.45" width="114.16" height="30.12" transform="translate(294.62 -314.63) rotate(55.36)"/><rect class="cls-3" x="496.55" y="175.6" width="109.93" height="4.19"/><rect class="cls-4" x="494.44" y="162.08" width="114.16" height="16.28"/><rect class="cls-5" x="493.89" y="156.59" width="99.55" height="4.42"/><rect class="cls-6" x="491.97" y="142.33" width="103.38" height="17.17"/><rect class="cls-5" x="531.69" y="99.37" width="49.78" height="7.75"/><rect class="cls-6" x="530.73" y="74.36" width="51.69" height="30.12"/><rect class="cls-3" x="509.95" y="133.51" width="78.33" height="7.75"/><rect class="cls-4" x="508.44" y="108.49" width="81.34" height="30.12"/><rect class="cls-5" x="598.22" y="117.97" width="109.93" height="10.48" transform="translate(529.97 776.4) rotate(-90)"/><rect class="cls-6" x="577.41" y="102.85" width="114.16" height="40.72" transform="translate(511.28 757.7) rotate(-90)"/><rect class="cls-3" x="313.51" y="151.88" width="51.18" height="4.98" transform="translate(184.73 493.46) rotate(-90)"/><rect class="cls-4" x="303.65" y="144.7" width="53.14" height="19.34" transform="translate(175.85 484.59) rotate(-90)"/><rect class="cls-3" x="18.91" y="356.38" width="109.93" height="7.75"/><rect class="cls-4" x="16.8" y="331.37" width="114.16" height="30.12"/><rect class="cls-3" x="27.7" y="322.29" width="109.93" height="7.75"/><rect class="cls-4" x="25.59" y="297.28" width="114.16" height="30.12"/><rect class="cls-5" x="19.46" y="289.53" width="138.43" height="7.75"/><rect class="cls-6" x="16.8" y="264.51" width="143.76" height="30.12"/><rect class="cls-3" x="30.86" y="256.41" width="37.69" height="7.75"/><rect class="cls-4" x="30.14" y="231.39" width="39.14" height="30.12"/><rect class="cls-5" x="161.72" y="296.62" width="122.38" height="7.75" transform="translate(-77.58 523.41) rotate(-90)"/><rect class="cls-6" x="145.54" y="285.44" width="127.09" height="30.12" transform="translate(-91.41 509.58) rotate(-90)"/><rect class="cls-3" x="135.19" y="303.8" width="109.93" height="7.75" transform="translate(-117.52 497.82) rotate(-90)"/><rect class="cls-4" x="119.24" y="292.61" width="114.16" height="30.12" transform="translate(-131.35 483.99) rotate(-90)"/><rect class="cls-3" x="230.12" y="360.16" width="109.93" height="4.19" transform="translate(570.16 724.51) rotate(180)"/><rect class="cls-4" x="228" y="346.64" width="114.16" height="16.28" transform="translate(570.16 709.57) rotate(180)"/><rect class="cls-3" x="428.66" y="306.22" width="54.96" height="4.08"/><rect class="cls-4" x="427.61" y="293.05" width="57.08" height="15.85"/><rect class="cls-5" x="243.16" y="341.15" width="99.55" height="4.42" transform="translate(585.87 686.71) rotate(180)"/><rect class="cls-6" x="241.24" y="326.89" width="103.38" height="17.17" transform="translate(585.87 670.95) rotate(180)"/><rect class="cls-5" x="255.13" y="283.94" width="49.78" height="7.75" transform="translate(560.04 575.62) rotate(180)"/><rect class="cls-6" x="254.18" y="258.92" width="51.69" height="30.12" transform="translate(560.04 547.97) rotate(180)"/><rect class="cls-3" x="248.32" y="318.07" width="78.33" height="7.75" transform="matrix(-1, 0, 0, -1, 574.97, 643.89)"/><rect class="cls-4" x="246.81" y="293.05" width="81.34" height="30.12" transform="matrix(-1, 0, 0, -1, 574.97, 616.23)"/><rect class="cls-5" x="349.2" y="359.08" width="109.93" height="4.08"/><rect class="cls-6" x="347.09" y="345.92" width="114.16" height="15.85"/><rect class="cls-3" x="336.15" y="296.18" width="109.93" height="7.75" transform="translate(-72.59 132.79) rotate(-17.66)"/><rect class="cls-4" x="329.84" y="271.81" width="114.16" height="30.12" transform="translate(-68.79 130.9) rotate(-17.66)"/><rect class="cls-3" x="446.52" y="290.46" width="134.11" height="7.75" transform="translate(219.24 807.9) rotate(-90)"/><rect class="cls-4" x="430.11" y="279.27" width="139.27" height="30.12" transform="translate(205.41 794.08) rotate(-90)"/><rect class="cls-5" x="491.73" y="302.81" width="109.93" height="7.75" transform="translate(240.01 853.38) rotate(-90)"/><rect class="cls-6" x="475.79" y="291.62" width="114.16" height="30.12" transform="translate(226.18 839.55) rotate(-90)"/><rect class="cls-3" x="512.94" y="290.46" width="134.11" height="7.75" transform="translate(285.66 874.32) rotate(-90)"/><rect class="cls-4" x="496.53" y="279.27" width="139.27" height="30.12" transform="translate(271.83 860.49) rotate(-90)"/><rect class="cls-5" x="561.52" y="311.17" width="95.33" height="6.38" transform="translate(294.82 923.55) rotate(-90)"/><rect class="cls-6" x="548.3" y="301.96" width="99" height="24.8" transform="translate(283.44 912.16) rotate(-90)"/><rect class="cls-3" x="603.45" y="326.52" width="65.62" height="6.38" transform="translate(306.55 965.97) rotate(-90)"/><rect class="cls-4" x="590.81" y="317.31" width="68.15" height="24.8" transform="translate(295.17 954.59) rotate(-90)"/><rect class="cls-3" x="582.42" y="284.94" width="147.58" height="4.43" transform="translate(369.05 943.37) rotate(-90)"/><rect class="cls-4" x="571.68" y="278.55" width="153.25" height="17.21" transform="translate(361.15 935.46) rotate(-90)"/></g></g></svg>