<svg xmlns="http://www.w3.org/2000/svg" viewBox="0 0 479.13 357.16"><defs><style>.cls-1{fill:#4f345a;}.cls-1,.cls-2,.cls-3{stroke:#fff;stroke-miterlimit:10;}.cls-2{fill:#29abe2;}.cls-3{fill:#662d91;}.cls-4{font-size:95.75px;font-family:Sansita-Regular, Sansita;}</style></defs><title>Asset 12</title><g id="Layer_2" data-name="Layer 2"><g id="Layer_1-2" data-name="Layer 1"><ellipse class="cls-1" cx="239.56" cy="203.16" rx="239.06" ry="56.34"/><rect class="cls-2" x="166.06" y="141.57" width="179" height="73.63"/><polygon class="cls-2" points="345.06 141.57 166.06 141.57 76.56 103.39 255.56 103.39 345.06 141.57"/><polygon class="cls-3" points="76.56 177.02 166.06 215.2 166.06 141.57 76.56 103.39 76.56 177.02"/><rect class="cls-2" x="143.06" y="83.42" width="179" height="51.43"/><polygon class="cls-2" points="322.06 83.42 143.06 83.42 67.56 54.19 246.56 54.19 322.06 83.42"/><polygon class="cls-3" points="67.56 105.62 143.06 134.85 143.06 83.42 67.56 54.19 67.56 105.62"/><polygon class="cls-2" points="302.56 72.84 134.31 72.1 134.31 20.67 302.56 21.41 302.56 72.84"/><polygon class="cls-2" points="302.56 21.41 134.31 20.67 87.81 0.76 256.06 1.5 302.56 21.41"/><polygon class="cls-3" points="87.81 52.19 134.31 72.1 134.31 20.67 87.81 0.76 87.81 52.19"/><rect class="cls-2" x="208.19" y="43.99" width="179" height="191.26"/><polygon class="cls-2" points="387.19 43.99 208.19 43.99 173.19 25.99 352.19 25.99 387.19 43.99"/><polygon class="cls-3" points="173.19 217.25 208.19 235.25 208.19 43.99 173.19 25.99 173.19 217.25"/><text class="cls-4" transform="translate(67.56 332.65)">GameBox</text></g></g></svg>