<svg xmlns="http://www.w3.org/2000/svg" viewBox="0 0 303.52 164.63"><defs><style>.cls-1{fill:#4f345a;}.cls-2{fill:#29abe2;}.cls-2,.cls-3{stroke:#fff;stroke-miterlimit:10;stroke-width:0.5px;}.cls-3{fill:#662d91;}</style></defs><title>Asset 11</title><g id="Layer_2" data-name="Layer 2"><g id="Layer_1-2" data-name="Layer 1"><ellipse class="cls-1" cx="151.76" cy="128.87" rx="151.76" ry="35.77"/><rect class="cls-2" x="105.1" y="89.77" width="113.63" height="46.74"/><polygon class="cls-2" points="218.73 89.77 105.1 89.77 48.29 65.53 161.92 65.53 218.73 89.77"/><polygon class="cls-3" points="48.29 112.27 105.1 136.51 105.1 89.77 48.29 65.53 48.29 112.27"/><rect class="cls-2" x="90.5" y="52.85" width="113.63" height="32.65"/><polygon class="cls-2" points="204.13 52.85 90.5 52.85 42.57 34.3 156.2 34.3 204.13 52.85"/><polygon class="cls-3" points="42.57 66.94 90.5 85.5 90.5 52.85 42.57 34.3 42.57 66.94"/><polygon class="cls-2" points="191.75 46.14 84.95 45.67 84.95 13.02 191.75 13.49 191.75 46.14"/><polygon class="cls-2" points="191.75 13.49 84.95 13.02 55.43 0.38 162.24 0.85 191.75 13.49"/><polygon class="cls-3" points="55.43 33.03 84.95 45.67 84.95 13.02 55.43 0.38 55.43 33.03"/><rect class="cls-2" x="131.84" y="27.82" width="113.63" height="121.41"/><polygon class="cls-2" points="245.47 27.82 131.84 27.82 109.63 16.39 223.26 16.39 245.47 27.82"/><polygon class="cls-3" points="109.63 137.81 131.84 149.24 131.84 27.82 109.63 16.39 109.63 137.81"/></g></g></svg>